<?xml version="1.0"?><svg version="1.2" baseProfile="tiny-ps" viewBox="0 0 300 300" xmlns="http://www.w3.org/2000/svg" xmlns:xlink="http://www.w3.org/1999/xlink"><title>ClosedLoop AI</title><g><g fill="#656ecd" transform="matrix(.1 0 0 -.1 0 300)"><path d="M1380 2859c0-4 6-10 13-13l12-5-18-11-19-12 31-19c40-24 49-24 27 0l-17 18 21 6c30 8 24 21-15 33l-35 11v-8zm75 1 6-10 10 5c14 9 11 15-7 15h-15l6-10zm46-5c9-9 39-22 67-29l51-14 3 10 4 11 21-11 20-11 7 6c3 3 6 12 6 20v13h-26c-14 0-34-5-44-10l-20-10-17 8-40 20c-13 7-28 12-35 12h-12l15-15zm94 5c3-5 10-10 16-10 5 0 9 5 9 10 0 6-7 10-16 10h-15l6-10zm-340-20-6-10h15c9 0 16 5 16 10 0 6-4 10-9 10-6 0-13-4-16-10zm435-1v-11l30 6 30 6v-29l-27-4-28-4 23-8c12-4 22-11 22-16s4-9 9-9c10 0 19 50 13 68l-4 12h-68v-11zm-482-5c-5-4-8-16-8-26v-18h14c8 0 16-5 18-12l4-12 20 9 19 9-21 3-20 4-10 25-9 26-7-8zm112-9v-15l-37-1-38-2 53-10c59-11 68-8 52 22-13 24-30 28-30 6zm495 5c3-5 14-10 23-10h17l-15 10c-8 5-19 10-23 10h-8l6-10zm-363-12 5-13 28-3 29-4-13 16-13 16h-40l4-12zm-322-7c0-5 7-12 16-15l15-6-6-10-6-10h15c19 0 20 5 6 31l-11 19h-14c-8 0-15-4-15-9zm425-11-6-10h15c9 0 16 5 16 10 0 6-4 10-9 10-6 0-13-4-16-10zm355-6v-16l-15 6-15 5v-7c0-4 13-16 30-25l30-18-15-23-15-23 7-6 6-7 19 16 18 17 50-6 50-6v39l13 1c12 1-37 16-85 26l-27 5 5 13 5 12-23 7c-34 9-38 8-38-10zm46-29 6-15h23c28 0 55-9 55-19 0-4-17-7-37-7l-38 1-17 20c-10 11-17 23-18 28 0 13 21 7 26-8zm-127 15c13-11 28-20 34-20h10l-18 20c-10 11-25 20-34 20l-16-1 24-19zm-804 0-6-10h62l-6 10c-3 6-15 10-25 10s-22-4-25-10zm442-20-27-30h30v28l20 5c11 3 20 10 20 16 0 19-16 12-43-19zm157 15c22-17 36-19 36-6 0 10-24 21-43 21l-12-1 19-14zm-88-11-6-16 12 4c6 2 14 10 16 16l4 12h-10c-5 0-13-7-16-16zm-443-1c-18-6-16-23 1-23s30 16 19 23c-5 2-14 2-20 0zm198-7-12-14 8-5c5-3 20 3 33 14l25 19h-43l-11-14zm409 4c0-5 7-10 16-10h15l-6 10c-3 6-10 10-16 10-5 0-9-4-9-10zm76 3c-3-3-3-10 0-14 7-12 34-11 34 0s-26 22-34 14zm-788-10-28-4v-12c0-6-19-28-42-50l-42-39-18 22-17 22-19-6-18-6v-39l28 6 28 6v-9c0-4-12-20-27-36-35-36-24-48 12-12l27 27 8-13 8-12 6 11 7 11h-10c-6 0-11 7-11 15v15h14c8 0 21 8 28 18 16 21 66 55 92 62 11 3 21 11 24 18l4 12-14-1c-7-1-25-4-40-6zm182-1c0-9 47-8 57 1l6 7h-63v-8zm-266-21c-18-11-35-24-38-29l-6-11 7-4c5-3 26 10 48 29 44 37 38 45-11 15zm454 12c7-3 16-2 19 1 4 3-2 6-13 5l-19-1 13-5zm257-3-6-10h42l-6 10c-3 6-10 10-15 10s-12-4-15-10zm-489-15-5-15h14c16 0 20 16 6 24l-9 6-6-15zm114 5c0-5 7-10 16-10h15l-6 10c-3 6-10 10-16 10-5 0-9-4-9-10zm440 0c0-5 7-10 15-10s15 5 15 10c0 6-7 10-15 10s-15-4-15-10zm-650-14c0-8-6-16-12-19l-13-4 7-8 8-8 20 18 20 18-6 8c-8 14-24 10-24-5zm360 8c0-13 18-39 24-34 2 3-2 14-10 24-8 11-14 16-14 10zm453-1c9-2 25-2 35 0l17 5h-70l18-5zm277-2c0-4 11-13 25-19l25-12v9c0 4-11 13-25 19l-25 12v-9zm-625-11-6-10h10c6 0 11 5 11 10 0 6-2 10-4 10-3 0-8-4-11-10zm-172-15c0-8 4-15 8-15s9 7 13 15l5 15h-26v-15zm747 5c0-5 5-10 11-10h10l-6 10c-3 6-8 10-11 10-2 0-4-4-4-10zm-1020-11v-10l19 6 20 6 10-18c11-21 24-13 15 11l-6 16h-58v-11zm750 1c0-5 5-10 10-10 6 0 10 5 10 10 0 6-4 10-10 10-5 0-10-4-10-10zm-603-14-6-16-15 6-14 5-7-10-6-11h52l6 15c3 9 3 18 0 21-2 3-7-2-10-10zm298 4c3-5 8-10 11-10 2 0 4 5 4 10 0 6-5 10-11 10h-10l6-10zm193 3c7-3 16-2 19 1 4 3-2 6-13 5l-19-1 13-5zm307-3c-3-5-15-10-26-10h-20l5-9 6-9 27 7c15 4 28 12 31 19l4 12h-11c-5 0-13-4-16-10zm200 0c3-5 8-10 11-10 2 0 4 5 4 10 0 6-5 10-11 10h-10l6-10zm-335-10-15-10h45v10c0 13-11 13-30 0zm-910-9c0-6 5-13 10-16l10-6v15c0 9-4 16-10 16-5 0-10-4-10-9zm855-1c3-5 8-10 11-10 2 0 4 5 4 10 0 6-5 10-11 10h-10l6-10zm109-5c1-8 5-18 9-21l7-7v43h-9c-5 0-8-7-7-15zm169 8c-7-2-13-9-13-15v-9l20 3c12 2 21 7 21 13 1 12-11 15-28 8zm-1093-13c0-5 7-10 15-10s15 5 15 10c0 6-7 10-15 10s-15-4-15-10zm1020 0c0-5 9-14 20-20l20-11v9c0 10-21 32-32 32-4 0-8-4-8-10zm145 1-5-10 10-6c12-7 30 2 30 16 0 12-27 12-35 0zm-1095-11-15-10h17c9 0 20 5 23 10l6 10h-8c-4 0-15-5-23-10zm700 0c0-5 5-10 10-10 6 0 10 5 10 10 0 6-4 10-10 10-5 0-10-4-10-10zm463-15v-25h18l-5 9-6 9 12 4 12 4-8 12c-12 20-23 14-23-13zm-1475-7-48-10v-19l18 5c9 3 34 8 55 12l37 6v9c0 10 2 10-62-3zm589-9c7-7 15-10 18-7s-2 9-12 12l-18 7 12-12zm-297-9c0-5 5-10 10-10 6 0 10 5 10 10 0 6-4 10-10 10-5 0-10-4-10-10zm1235-1c-4-6-5-13-2-16 7-7 27 6 27 18s-17 12-25-2zm-1390-19c-10-11-15-20-11-20s16 9 28 20l22 20h-11c-5 0-18-9-28-20zm1170 10-6-10h10c6 0 11 5 11 10 0 6-2 10-4 10-3 0-8-4-11-10zm95 0c0-5 6-10 14-10s18 5 21 10l6 10h-41v-10zm-1480-11v-10l10 6c6 3 10 8 10 11 0 2-4 4-10 4-5 0-10-5-10-11zm55 1-6-10h10c6 0 11 5 11 10 0 6-2 10-4 10-3 0-8-4-11-10zm1065 0c0-5 5-10 11-10h10l-6 10c-3 6-8 10-11 10-2 0-4-4-4-10zm540-5c0-8-4-15-9-15h-10l12-22c20-37 50-68 67-68 9 0 25-7 37-15l22-15 6 10 6 10h-23l12 16 13 15-17 17-17 17 2-10c1-5 1-17 0-27l-1-16-27 7c-15 4-29 13-31 20l-4 12 21 6c12 3 21 9 21 14 0 16-17 18-36 5l-19-14-12 10c-17 14-16 28 2 28 8 0 15 4 15 9s-7 11-15 15l-15 5v-14zm-935-5c3-5 8-10 11-10 2 0 4 5 4 10 0 6-5 10-11 10h-10l6-10zm710 0c3-5 8-10 11-10 2 0 4 5 4 10 0 6-5 10-11 10h-10l6-10zm115-5c7-8 17-15 22-15h10l-12 15c-7 8-17 15-22 15h-10l12-15zm-1590-10-12-15h41l-5 15c-4 8-7 15-9 15-1 0-8-7-15-15zm115 4c-4-6-4-13-1-16 8-8 36 5 36 17 0 13-27 13-35-1zm-78-20c-20-22-15-41 5-21 7 7 22 12 35 12h23v9c0 8-23 21-39 21-3 0-15-9-24-21zm1253 11c0-5 5-10 11-10h10l-6 10c-3 6-8 10-11 10-2 0-4-4-4-10zm270 0c0-5 5-10 11-10h10l-6 10c-3 6-8 10-11 10-2 0-4-4-4-10zm80-5c7-8 19-15 27-15h15l-12 15c-7 8-19 15-27 15h-15l12-15zm-1250-10v-15h32l-12 15c-7 8-14 15-16 15s-4-7-4-15zm-210-6v-10l10 6c6 3 10 8 10 11 0 2-4 4-10 4-5 0-10-5-10-11zm140 1c0-5 5-10 10-10 6 0 10 5 10 10 0 6-4 10-10 10-5 0-10-4-10-10zm250-5c0-8 2-15 4-15s6 7 10 15l5 15h-9c-6 0-10-7-10-15zm-603-1c-13-13-7-24 14-24h21l-4 12c-5 14-22 21-31 12zm393-4c0-5 5-10 10-10 6 0 10 5 10 10 0 6-4 10-10 10-5 0-10-4-10-10zm1142 0 5-15 29-2 29-2-20 6c-11 3-26 10-34 17l-14 11 5-15zm-1442-10c-8-5-12-12-9-15 8-8 39 5 39 16s-11 11-30-1zm70-21v-10l10 6c6 3 10 8 10 11 0 2-4 4-10 4-5 0-10-5-10-11zm470 0v-10l10 6c6 3 10 8 10 11 0 2-4 4-10 4-5 0-10-5-10-11zm1050 2c0-9 24-21 42-21h10l-12 15c-14 16-40 20-40 6zm-1729-10-14-9 6-9 6-10-20-21-20-22h-39v-20h37l18 20c10 11 25 22 34 25l16 5 1 25c2 27-3 30-25 16zm72-11c-30-24-29-27 7-27 32 0 33 2 22 29l-7 16-22-18zm1427 10c0-5 5-10 10-10 6 0 10 5 10 10 0 6-4 10-10 10-5 0-10-4-10-10zm-1235-10-6-10h15c9 0 16 5 16 10 0 6-4 10-9 10-6 0-13-4-16-10zm70-20-6-10h10c6 0 11 5 11 10 0 6-2 10-4 10-3 0-8-4-11-10zm1600 0-6-10h31v-18c0-22 22-72 32-72s-22 87-37 100l-13 11-7-11zm-120-10c3-5 8-10 11-10 2 0 4 5 4 10 0 6-5 10-11 10h-10l6-10zm-93-7-12-5 6-9c8-14 21-11 28 6l5 15-7-1c-4 0-13-3-20-6zm133-13-6-10h10c6 0 11 5 11 10 0 6-2 10-4 10-3 0-8-4-11-10zm45-4c0-8 5-18 10-21 16-10 12-25-7-25h-18l14-9 14-9 14 13 13 14-10 25c-10 28-30 35-30 12zm-395-7c-11-17 1-21 15-4l12 15h-10c-6 0-14-5-17-11zm-1520-19-6-10h18c10 0 25 5 33 10l15 10h-54l-6-10zm155 0c0-5 5-10 10-10 6 0 10 5 10 10 0 6-4 10-10 10-5 0-10-4-10-10zm-50-10c0-5 5-10 10-10 6 0 10 5 10 10 0 6-4 10-10 10-5 0-10-4-10-10zm781-50c-46-27-87-52-93-58l-10-10 251-143 250-144 3-292 3-293 98 56 97 55v584l-217 125c-119 69-235 135-257 146l-41 22-84-48zm974 40-6-10h15c9 0 16 5 16 10 0 6-4 10-9 10-6 0-13-4-16-10zm178-30v-31l6 9c3 5 11 11 17 13l11 4-17 17-17 18v-30zm-2143 5c0-8 5-15 10-15 6 0 10 7 10 15s-4 15-10 15c-5 0-10-7-10-15zm110 0c0-11 51-57 57-52 3 3-6 17-20 31-25 25-37 32-37 21zm-45-16c-4-6-5-13-2-16 7-7 27 6 27 18s-17 12-25-2zm2005 1c0-5 7-10 16-10h15l-6 10c-3 6-10 10-16 10-5 0-9-4-9-10zm-55-10c3-5 11-10 16-10h10l-6 10c-3 6-11 10-16 10h-10l6-10zm-2049-17c5-5 11-12 15-16l6-8 13 16 12 15h-55l9-7zm1824-2c0-6 5-13 10-16l10-6v15c0 9-4 16-10 16-5 0-10-4-10-9zm-1560-19c0-4 10-13 21-21l22-13-7 17c-3 9-6 19-6 21s-7 4-15 4-15-3-15-8zm1900-3v-10l-10 6-10 6v-23l16 6c9 3 22 6 30 6h15l-6 10c-8 13-35 13-35-1zm50-6c0-11 4-23 9-28 5-6 13-26 18-45l9-35 25-3c13-2 30-9 37-14l12-10v15c0 19-18 32-45 32h-20l-10 49-11 50-12 4-12 4v-19zm-2126-9 6-17-11-13c-6-8-8-14-4-14 11 0 34 32 35 48v12h-32l6-16zm-89-5c-12-19 5-23 22-6l17 17h-16c-9 0-20-5-23-11zm50-9-6-10h10c6 0 11 5 11 10 0 6-2 10-4 10-3 0-8-4-11-10zm2045-5c-18-21-5-31 15-12l15 16-9 5-9 6-12-15zm100-15c0-5 5-10 10-10 6 0 10 5 10 10 0 6-4 10-10 10-5 0-10-4-10-10zm-1590-144-245-143-3-111c-1-62 0-112 3-112s115 63 249 140 248 140 255 140c6 0 117-61 246-135 129-75 241-138 250-141l16-6-3 112-3 111-250 145c-137 79-254 143-260 143-5 0-120-65-255-143zm-678 109-12-26 19 10 18 10 7-6c3-3 6-15 6-25 0-19 15-24 25-8l6 10-18 30c-21 37-36 38-51 5zm75 18c-10-9-9-23 2-23 5 0 11 7 15 15l5 15h-8c-4 0-11-3-14-7zm2183-27c0-8 5-18 10-21l10-6v41h-10c-5 0-10-6-10-14zm-2120-27v-10l10 6c6 3 10 8 10 11 0 2-4 4-10 4-5 0-10-5-10-11zm2075 1c3-5 8-10 11-10 2 0 4 5 4 10 0 6-5 10-11 10h-10l6-10zm-2220-20-6-10h10c6 0 11 5 11 10 0 6-2 10-4 10-3 0-8-4-11-10zm26-39-1-45 12 12 11 11-10 33-11 33-1-44zm64 30-5-10 9-5 9-6 6 15 5 15h-9c-5 0-11-4-15-9zm105-1c0-5 5-10 10-10 6 0 10 5 10 10 0 6-4 10-10 10-5 0-10-4-10-10zm2055 0c3-5 8-10 11-10 2 0 4 5 4 10 0 6-5 10-11 10h-10l6-10zm125-10v-20h20v40h-20v-20zm30 10c0-5 5-10 10-10 6 0 10 5 10 10 0 6-4 10-10 10-5 0-10-4-10-10zm-70-14c0-21 11-46 20-46h7l-5 25c-2 14-8 28-13 31l-9 5v-15zm-2384-23c-8-19-8-18 27-27l27-6v7c0 5-11 16-24 25l-24 17-6-16zm124-7c0-8 5-18 10-21l10-6v15c0 8-4 18-10 21l-10 6v-15zm2314 1c-2-7-3-24-2-37l3-24-22-11-22-11 9-14 9-14 25 23 26 24-6 22-6 23 11 6c6 4 11 11 11 17 0 14-30 11-36-4zm-124-7c0-5 5-10 10-10 6 0 10 5 10 10 0 6-4 10-10 10-5 0-10-4-10-10zm162-21 3-22 13-5 14-4-4 23-3 22-13 5-14 4 4-23zm-2420-26 6-23h-18v-23c0-13-6-29-12-36l-13-13 20 4 20 3 3 30c2 17 8 35 13 41l9 11-17 14-16 14 5-22zm198 7c0-5 5-10 10-10 6 0 10 5 10 10 0 6-4 10-10 10-5 0-10-4-10-10zm1550-283v-293l-250-144c-137-80-250-147-250-150 0-5 25-20 127-77l63-35 255 147 255 147v578l-52 33c-29 18-74 46-100 61l-48 27v-294zM237 2015l-18-25h10c5 0 13 5 16 11l7 10 14-5c16-6 17-4 8 18-8 22-16 20-37-9zm2388 15c3-5 8-10 11-10 2 0 4 5 4 10 0 6-5 10-11 10h-10l6-10zm130-20c3-5 8-10 11-10 2 0 4 5 4 10 0 6-5 10-11 10h-10l6-10zm25-19v-31h20v24c0 14-4 28-10 31l-10 6v-30zm-45-14c-4-10-5-21-1-24 10-10 18 4 13 24l-4 18-8-18zm-2370-17-6-10h10c6 0 11 5 11 10 0 6-2 10-4 10-3 0-8-4-11-10zm2310 0c3-5 8-10 11-10 2 0 4 5 4 10 0 6-5 10-11 10h-10l6-10zm-2448-7c-4-3-7-13-7-21v-14l15 12c8 7 15 16 15 21 0 11-14 12-23 2zm33-24v-10l10 6c6 3 10 8 10 11 0 2-4 4-10 4-5 0-10-5-10-11zm92-9c12-19 28-27 28-14 0 7-27 34-34 34-4 0-1-9 6-20zm648-123-245-142-2-295-3-295 91-53c50-28 95-52 100-52h9v580l23 13c12 8 119 70 237 137 118 68 221 128 227 134l13 11-94 53c-51 28-97 52-102 52-5-1-119-65-254-143zm1660 134v-12l-10 6-10 6v-15c0-9 4-16 9-16 11 0 24 31 16 38-3 3-5 0-5-7zm100-16c0-8 5-15 10-15 6 0 10 7 10 15s-4 15-10 15c-5 0-10-7-10-15zm-2565-5-6-10h10c6 0 11 5 11 10 0 6-2 10-4 10-3 0-8-4-11-10zm2415 0c0-5 5-10 11-10h10l-6 10c-3 6-8 10-11 10-2 0-4-4-4-10zm180-34v-44l24-29 23-28-1-49-2-50-12-4c-14-4-16-32-2-32 6 0 10 4 10 9v9l25-3 25-2v49l-15-12-15-12v60l10 4 10 3-7 38-6 37-12-10-13-11-6 18-7 17 15 8 15 9-6 16-6 16-13-17-12-17-7 12-8 11 13 8 13 8-6 16c-4 9-11 16-17 16h-10v-44zm-2510 24v-10h-19c-11 0-26-3-35-6l-16-6v-17c0-9-4-21-8-26l-9-10 8-25 7-25 1 25 2 25 18 23c11 12 25 22 33 22 7 0 19 9 26 20l12 20h-10c-5 0-10-4-10-10zm2440-29c5-11 15-23 20-26l10-6v8c-1 11-26 43-34 43-4 0-2-9 4-19zm-2543-17c-4-4-7-14-7-23v-15l11 11c6 6 10 16 7 23l-3 11-8-7zm2423-4-14-9 7-7 7-8 12 12c15 15 7 24-12 12zm56-24c3-9 11-16 16-16h10l-4 12c-2 6-10 14-16 16l-12 4 6-16zm-2386-6v-10h-42l12-15 12-14 19 12c20 12 26 37 9 37-5 0-10-4-10-10zm2480-10c0-5 7-10 15-10h14l11-19 10-20-10-6-10-6v22l-32-4-33-3v-19l39-1 38-1 9-14c17-26 5-35-38-30l-13 2v-30l20 2c11 1 20 5 20 9s9 8 21 8h21l-7 18c-3 9-9 31-12 47-3 17-13 38-21 48-16 19-42 23-42 7zm-2580-35c0-8 5-15 10-15 6 0 10 7 10 15s-4 15-10 15c-5 0-10-7-10-15zm290 5c0-5 5-10 11-10h10l-6 10c-3 6-8 10-11 10-2 0-4-4-4-10zm-240-13c0-2 7-18 16-35 15-31 34-43 34-22 0 6-4 10-10 10h-10v50h-15c-8 0-15-2-15-3zm-68-37v-25l5 13c2 6 2 18 0 25l-5 12v-25zm43-3c-4-10-5-21-1-24 10-10 18 4 13 24l-4 18-8-18zm196-23 1-19 5 13c3 7 2 16-1 19-3 4-6-2-5-13zm2295-16c3-4 12-8 20-8s14 4 14 8-9 8-19 8h-20l5-8zm-2536-18c0-5 10-14 21-21l22-11 8 13c15 23 10 29-21 29h-30v-10zm110-30c0-5 5-10 10-10 6 0 10 5 10 10 0 6-4 10-10 10-5 0-10-4-10-10zm-124-22c-3-13-6-27-6-33 1-15 30 27 30 42 0 22-17 15-24-9zm84 6v-15l10 6c6 3 10 10 10 16 0 5-4 9-10 9-5 0-10-7-10-16zm2637 9c-4-3-7-12-7-20v-13h20c23 0 26 13 7 29l-14 11-6-7zm-91-18 6-15 9 6c14 8 10 24-6 24h-14l5-15zm-46-9v-16h32l-4 12c-2 6-10 14-16 16l-12 4v-16zm108 8-7-7 14-28c18-34 19-40 3-36l-13 2v-29l27-1 27-2 5 14 6 14-21 22c-12 12-24 30-28 40l-7 18-6-7zm-2668-18c0-16 28-42 36-33 7 6-18 47-28 47-5 0-8-6-8-14zm932-39-92-52 2-295 3-294 245-143c135-78 250-142 256-142 7-1 53 22 103 51l91 52-9 9c-5 5-116 71-247 146l-239 138-3 292-2 291h-8c-4 0-49-24-100-53zm-872 13c0-5 5-10 10-10 6 0 10 5 10 10 0 6-4 10-10 10-5 0-10-4-10-10zm42-1c2-6 8-10 13-10s11 4 13 10l4 11h-34l4-11zm75-9c3-11 9-20 13-20h8l-5 20c-3 11-9 20-13 20h-8l5-20zm2463 10c0-5 5-10 10-10 6 0 10 5 10 10 0 6-4 10-10 10-5 0-10-4-10-10zm-2420-11v-10l10 6c6 3 10 8 10 11 0 2-4 4-10 4-5 0-10-5-10-11zm2395-12c-4-10-5-21-1-24 10-10 18 4 13 24l-4 18-8-18zm-2611-8-6-11 11-11 11-11v22c0 24-5 28-16 11zm33-6c-2-10-8-26-12-35l-7-18h10c8 0 32 50 32 66 0 12-19 1-23-13zm2503 6v-10l10 6c6 3 10 8 10 11 0 2-4 4-10 4-5 0-10-5-10-11zm-2570-15v-15l10 6c6 3 10 10 10 16 0 5-4 9-10 9-5 0-10-7-10-16zm2525 7-5-10 10-6 10-6v15c0 18-6 21-15 7zm-2425-21v-20h20v40h-20v-20zm2528-25c2-14 6-25 8-25s4 11 4 25v25h-17l5-25zm52-4v-19l15-6 15-5v8c0 18-12 41-21 41-5 0-9-9-9-19zm36-26-15-46 11-19 11-18-21-36c-12-21-22-42-22-48v-10l15 12c8 7 15 17 15 22s10 22 21 36l22 27-6-22-5-23 9-6 9-5-2 45-1 46h-27v17c0 9 7 24 15 33l16 17-15 12-14 12-16-46zm-2690 0 6-25h-10c-5 0-13-8-16-17l-7-17 16-8 15-9v-49h-20v-40h10c6 0 13 7 16 15l6 15 10-6 10-7-7 34c-4 19-11 38-16 44-11 12-12 45 0 45h8l-5 25c-2 14-8 25-13 25h-9l6-25zm104 1c0-8 5-18 10-21l10-6v41h-10c-5 0-10-6-10-14zm2520-11c0-8 5-15 10-15 6 0 10 7 10 15s-4 15-10 15c-5 0-10-7-10-15zm-2579-19-13-24 9-16 9-16 11 40 10 40h-7c-4 0-12-11-19-24zm234-26-6-10h10c6 0 11 5 11 10 0 6-2 10-4 10-3 0-8-4-11-10zm2333-6c-5-4-8-16-8-26v-19l10 6 10 6v-10c0-6 5-11 11-11h11l-10 13c-5 6-11 20-13 30l-4 19-7-8zm32-4c0-7 24-20 36-20 13 0 1 19-16 23l-20 5v-8zm-2555-20c3-5 10-10 16-10 5 0 9 5 9 10 0 6-7 10-16 10h-15l6-10zm55-9c0-5 5-13 10-16l10-6v10c0 5-4 13-10 16l-10 6v-10zm2410-2v-10l10 6c6 3 10 8 10 11 0 2-4 4-10 4-5 0-10-5-10-11zm-2345-8-5-10 10-6 10-6v15c0 18-6 21-15 7zm-135-21c0-6 7-10 15-10s15 2 15 4-7 6-15 10l-15 5v-9zm-33-20-5-20 8-5c4-2 10-18 13-35 4-16 10-30 15-30h8l-4 35-4 35h-19l6 20 6 20h-9c-5 0-12-9-15-20zm2560-3c-3-8-2-19 3-26l7-13 7 17c3 9 6 21 6 26 0 14-17 11-23-4zm-147-26c0-5 7-12 16-15l17-6-13 15c-14 17-20 19-20 6zm92-16c-7-15-11-30-8-32 7-7 28 36 24 49l-4 10-12-27zm-2539-5c-7-11-13-24-13-30v-10h40v-30h15c20 0 19 12-4 37-10 11-21 28-22 37l-4 17-12-21zm87 10c0-5 5-10 10-10 6 0 10 5 10 10 0 6-4 10-10 10-5 0-10-4-10-10zm1000-98v-110l248-143c136-78 250-144 254-146s122 62 263 143l255 147v217h-9c-5 0-118-63-252-140-133-77-246-140-251-140-4 0-114 61-243 135-129 75-241 138-250 141l-15 6v-110zm1583 87c6-22 3-23-23-7l-19 12-8-8-8-8 23-15 22-15v-19c0-10 5-21 10-24l10-6v41h31l-2 23c-2 12 0 27 4 33l7 12h-52l5-19zm-2576-25c-4-4-7-19-7-33v-25l16 23 16 23-9 9-9 9-7-6zm50 0-5-9 14-19c19-26 26-17 10 13l-13 24-6-9zm-143-45-6-10 16-17 15-18-6-22-5-22h10c6 0 13 4 16 9l6 9 20-5 20-5v7c0 5-18 25-40 46l-40 38-6-10zm2606-10v-20l10 6c6 3 10 13 10 21s-4 14-10 14h-10v-21zm-184 2c-4-7-5-15-2-18 9-9 19 4 14 18l-4 13-8-13zm159-1c3-5 8-10 11-10 2 0 4 5 4 10 0 6-5 10-11 10h-10l6-10zm-45-26v-16l15 12c8 7 15 14 15 16s-7 4-15 4h-15v-16zm-2430-9c0-8 5-15 10-15 6 0 10 7 10 15s-4 15-10 15c-5 0-10-7-10-15zm2515 5-7-12 9-9 10-10 27 7c14 3 26 11 26 16v10l-16-6-17-6-12 10-13 11-7-11zm-260-20-6-10h10c6 0 11 5 11 10 0 6-2 10-4 10-3 0-8-4-11-10zm-2215-20c0-13 12-19 26-13 21 8 17 19-6 19-11 0-20-3-20-6zm2421-12-14-22 12-4c16-5 14-20-8-44l-20-20 6-15 5-14 15 28c8 15 20 31 26 35l12 7-12 20-12 19 14 6c18 7 20 26 2 26-7 0-18-10-26-22zm-2470-4 1-19 5 13c3 7 2 16-1 19-3 4-6-2-5-13zm2525-10c-20-19-20-30-1-38l15-5v-34l7 7c4 3 8 24 9 46l2 40h-8c-5 0-16-7-24-16zm-2566-39v-46l15-15 15-15v-49h20v19c0 11 5 21 11 23l10 3-7 18-6 18-22-3-21-3-3 23-3 22h15c9 0 16-4 16-10 0-5 4-10 10-10h10l-18 32c-10 17-23 33-30 36l-12 4v-47zm70 20v-17l11 4c6 2 11 8 11 13s-5 11-11 13l-11 4v-17zm2266 7-6-11 11-6c15-10 25 3 12 16l-11 11-6-10zm-2181-32c3-5 8-10 11-10 2 0 4 5 4 10 0 6-5 10-11 10h-10l6-10zm2311-6c-10-25 1-29 14-5l11 21h-10c-5 0-12-7-15-16zm-2286-9c0-8 5-15 10-15 6 0 10 7 10 15s-4 15-10 15c-5 0-10-7-10-15zm2245-5-18-20h10c13 0 38 29 31 35-3 3-13-4-23-15zm115-3v-18l-30-29c-17-17-35-30-41-30h-10l5-9 6-9 21 5c11 3 23 12 26 19l5 14 9-6 9-5 10 26 10 27-10 16-9 17-1-18zM337 995c24-32 38-32 17 0-9 14-20 25-26 25h-9l18-25zm-35-27c2-6 10-14 16-16l12-4-6 16c-3 9-11 16-16 16h-10l4-12zm2360 1c2-6 8-10 13-10s11 4 13 10l4 11h-34l4-11zm-222-29c0-5 5-10 10-10 6 0 10 5 10 10 0 6-4 10-10 10-5 0-10-4-10-10zm90-1v-10l10 6c6 3 10 8 10 11 0 2-4 4-10 4-5 0-10-5-10-11zM352 926l-22-11 5-13c3-8 5-27 5-43v-29h23l-6 33-5 33 19 12c10 7 19 17 19 22 0 12-8 11-38-4zm2394-1-18-14 7-10c10-17 21-13 33 14 13 28 6 31-22 10zm-2456-7c0-18 18-34 28-24 3 4-2 14-11 23l-17 17v-16zm2300-8c0-5 7-10 15-10s15-4 15-10c0-5 7-10 15-10h16l5-15 6-15h22c12 0 27-5 33-11l10-10 7 16 6 16-16 6-15 6 5 13 5 14h-9c-6 0-10-4-10-9s-9-11-20-14l-20-5v29l-9-6-9-5-15 15c-18 17-37 20-37 5zM440 890c0-5 5-10 10-10 6 0 10 5 10 10 0 6-4 10-10 10-5 0-10-4-10-10zm-146-34-6-14 18-27 17-26 13 5 13 5 6-9c9-15 25-12 25 5v15h-17c-9 0-24 7-34 16l-18 16 6 14 5 14h-11c-7 0-14-6-17-14zm2212 5-7-11h22l-6-10-6-10h10c13 0 14 10 2 29l-8 13-7-11zm109-21-6-10h10c6 0 11 5 11 10 0 6-2 10-4 10-3 0-8-4-11-10zm-2055-8c0-5 7-13 16-16l16-6-4 12c-2 6-10 14-16 16l-12 4v-10zm-110-17c0-8 5-15 10-15 6 0 10 7 10 15s-4 15-10 15c-5 0-10-7-10-15zm2230-1v-15l10 6c6 3 10 10 10 16 0 5-4 9-10 9-5 0-10-7-10-16zm-353-1c-4-3-7-11-7-17v-10l12 12c6 6 9 14 7 17-3 3-9 2-12-2zm236-18v-25h8c5 0 9 4 9 9s3 16 6 25l6 16h-29v-25zm42-37c-11-79-36-115-48-68l-5 20h-32v-14c0-8 5-18 11-22l11-6-7-34-6-34h31v50h9c5 0 11-3 14-7 2-5 2-2 1 5-2 6 0 12 4 12 11 0 33 65 34 101l1 30 14-6c8-3 17-5 20-5s0-7-7-15c-20-24-6-28 21-6l24 20-37 15c-21 9-39 16-42 16-2 0-7-24-11-52zM410 786c0-17 14-29 23-20 8 8-3 34-14 34-5 0-9-6-9-14zm2032 2c-7-7-12-16-12-20v-8l20 12c20 13 27 28 12 28-4 0-13-5-20-12zM340 763c0-6 9-18 20-28s20-15 20-10c0 4 7 2 15-5l15-13-2-26-3-26 18 3 17 3v-29l17-6 17-7-12-8-12-7 21-20 22-19-7 40c-5 22-11 45-16 50-4 6-13 27-19 47l-12 37-15-6-14-5-6 17-7 16-15-6-15-5-13 11-14 11v-9zm165-3-7-12 10-10 10-10 7 12 7 12-10 10-10 10-7-12zm-45-20c0-5 7-10 16-10h15l-6 10c-3 6-10 10-16 10-5 0-9-4-9-10zm2066-8-5-9 19 2c11 1 23 4 26 8l7 7h-21c-11 0-23-4-26-8zM530 721c0-17 12-41 20-41h8l-5 20c-3 11-9 23-14 26l-9 5v-10zm2106-7c-9-8-16-20-16-25v-10l10 6c11 7 33 45 26 45-2 0-12-7-20-16zm-166-5v-10l10 6c6 3 10 8 10 11 0 2-4 4-10 4-5 0-10-5-10-11zm-1875-9c3-5 8-10 11-10 2 0 4 5 4 10 0 6-5 10-11 10h-10l6-10zm1825-4c0-2 7-7 16-10l15-6-6 10c-6 10-25 14-25 6zM475 680c3-5 11-10 16-10h10l-6 10c-3 6-11 10-16 10h-10l6-10zm191-19-6-10 9-5 10-6 5 9 6 10-9 5-10 6-5-9zm-156-17v-14h30v24l12-12c7-7 16-12 21-12h9l-11 14-11 14h-50v-14zm120-13v-21h10c6 0 10 6 10 14s-4 18-10 21l-10 6v-20zm1743 4-5-16 6-7 7-6 9 14c13 20 12 30 0 30-6 0-13-7-17-15zm107-10v-16l18 3c21 4 19 22-2 26l-16 3v-16zm-30-5c0-5 5-10 10-10 6 0 10 5 10 10 0 6-4 10-10 10-5 0-10-4-10-10zM589 580c21-18 51-27 51-16 0 5-60 36-69 36-3-1 5-10 18-20zm1711-3c0-18 38-62 46-54 7 7-27 67-38 67-4 0-8-6-8-13zm-1790-6c0-5 7-14 15-21l15-12v42h-15c-8 0-15-4-15-9zm1888-2c-10-5-18-14-18-19v-8l30 11c30 11 41 27 18 27-7 0-21-5-30-11zm126 0-6-11-23 6-24 6 2-20 1-20h34l16 25c9 14 14 25 12 25-3 0-8-5-12-11zm-1719-9c3-5 11-10 16-10h10l-6 10c-3 6-11 10-16 10h-10l6-10zm-230-10c3-5 8-10 11-10 2 0 4 5 4 10 0 6-5 10-11 10h-10l6-10zm75 0c0-5 5-10 11-10h10l-6 10c-3 6-8 10-11 10-2 0-4-4-4-10zm80 0c0-5 5-10 11-10h10l-6 10c-3 6-8 10-11 10-2 0-4-4-4-10zm-180-25c0-8 5-15 10-15 6 0 10 7 10 15s-4 15-10 15c-5 0-10-7-10-15zm70 4c0-8 7-25 16-37l15-22h-31v20c0 23-8 25-34 5l-18-14 37-15c21-9 41-16 45-16h9l-4 32-5 32-15 15-15 15v-15zm1801-13-12-14 11-7 11-7-5-17-6-16 15 19c28 36 14 76-14 42zM750 500c0-5 5-10 11-10h10l-6 10c-3 6-8 10-11 10-2 0-4-4-4-10zm1625 0-6-10h10c6 0 11 5 11 10 0 6-2 10-4 10-3 0-8-4-11-10zm-305-11v-10l10 6c6 3 10 8 10 11 0 2-4 4-10 4-5 0-10-5-10-11zm-1393-5c-8-8 1-24 14-24 5 0 9 7 9 15 0 15-12 20-23 9zm1636-9c-9-24 0-25 27-5l25 20h-46l-6-15zm-151-16c2-6 8-10 13-10s11 4 13 10l4 11h-34l4-11zm71 4c-7-2-13-9-13-14v-9h43l-6-7-7-6 19-14 19-13 16 6 16 6 14-11 14-12 7 11c10 16-1 23-34 22l-28-1-12 25-11 24-12-1c-7 0-19-3-25-6zm-1053-13c0-5 5-10 11-10h10l-6 10c-3 6-8 10-11 10-2 0-4-4-4-10zm1190 0c0-5 4-10 9-10 6 0 13 5 16 10l6 10h-15c-9 0-16-4-16-10zM673 437l6-17h-31l11-14c6-8 22-16 34-19 12-2 30-8 40-12l17-7v23l-30 10-30 11v13c0 8-5 17-12 21l-11 7 6-16zm1422-7-6-10h10c6 0 11 5 11 10 0 6-2 10-4 10-3 0-8-4-11-10zm-1325-9c0-5 12-11 27-14l28-5-20 14c-22 16-35 18-35 5zm81-23-1-28h10c12 0 12 8 0 35l-9 20v-27zm1169 12c0-5 5-10 10-10 6 0 10 5 10 10 0 6-4 10-10 10-5 0-10-4-10-10zm44-4-6-17 6-6 6-7 12 12 12 12-12 12-11 11-7-17zm116 4v-10h40v20h-40v-10zM905 399c-10-15 3-25 16-12l11 11-10 6-11 6-6-11zm125-19c0-5 7-10 16-10h15l-6 10c-3 6-10 10-16 10-5 0-9-4-9-10zm810 0c0-5 5-10 10-10 6 0 10 5 10 10 0 6-4 10-10 10-5 0-10-4-10-10zm380-5c0-8 5-15 10-15 6 0 10 7 10 15s-4 15-10 15c-5 0-10-7-10-15zm55 5-6-10h15c9 0 16 5 16 10 0 6-4 10-9 10-6 0-13-4-16-10zm-325-10c0-5 5-10 10-10 6 0 10 5 10 10 0 6-4 10-10 10-5 0-10-4-10-10zm166-15c9-14 13-25 9-25s-2-7 5-15c17-20 8-27-23-20l-26 7 6 16 6 17-19-17-19-16-11 12c-6 6-9 17-6 24l4 12h-11c-14 0-14-27-1-35 6-3 10-12 10-20v-13l-17 3-18 2 13-4 12-5-5-9-6-9h8c5 0 14 5 21 12l12 12v-11c0-6-7-16-15-23l-15-13-38 7c-20 3-47 9-59 12l-23 6v-11c0-6 7-14 15-16 8-3 23-8 33-11 18-7 66-6 95 2l17 5v29l23 9c13 5 32 9 43 8l19-2-2 11-2 11 24-5 25-4v20l-30 6c-35 6-39 21-9 29l21 6-6 10-7 10-13-5-14-5-7 10c-3 6-13 11-21 11h-14l16-25zm-1316-9c0-15 18-31 26-23 7 7-7 37-17 37-5 0-9-6-9-14zm-45-6c3-5 13-10 21-10h15l-6 10c-3 6-13 10-21 10h-15l6-10zm95 0c0-5 7-10 15-10s15 5 15 10c0 6-7 10-15 10s-15-4-15-10zm670 0c0-5 5-10 10-10 6 0 10 5 10 10 0 6-4 10-10 10-5 0-10-4-10-10zm280 0c0-5 5-10 10-10 6 0 10 5 10 10 0 6-4 10-10 10-5 0-10-4-10-10zm390 0v-10h69l6 10 6 10h-81v-10zM965 330c3-5 11-10 16-10h10l-6 10c-3 6-11 10-16 10h-10l6-10zm155-10c0-5 5-10 11-10h10l-6 10c-3 6-8 10-11 10-2 0-4-4-4-10zm-70-10c0-5 5-10 10-10 6 0 10 5 10 10 0 6-4 10-10 10-5 0-10-4-10-10zm131 1-13-8 12-8 12-7 10 10 10 10-9 5c-5 3-15 2-22-2zm686 2c-12-11-8-23 8-23h15v15c0 16-12 20-23 8zm83-13c0-5 7-10 15-10s15 5 15 10c0 6-7 10-15 10s-15-4-15-10zM905 290c3-5 13-10 21-10s14 5 14 10v10h-41l6-10zm-45-10c0-5 5-10 10-10 6 0 10 5 10 10 0 6-4 10-10 10-5 0-10-4-10-10zm470 0v-10h40v20h-40v-10zm-349-14c2-2 16-6 32-10l27-6v20h-32c-17 0-29-2-27-4zm74-6c3-5 10-10 16-10 5 0 9 5 9 10 0 6-7 10-16 10h-15l6-10zm58 3c9-2 23-2 30 0l12 5h-60l18-5zm557-3c0-5 5-10 11-10h10l-6 10c-3 6-8 10-11 10-2 0-4-4-4-10zm80 0c20-13 47-13 55 0l6 10h-76l15-10zm-804-14c3-8 12-17 20-20l14-5-13 19c-6 11-15 20-19 20h-7l5-14zm504 4c0-5 5-10 10-10 6 0 10 5 10 10 0 6-4 10-10 10-5 0-10-4-10-10zm-220-14v-16h42l-4 13c-3 6-12 13-21 15l-17 3v-15zm624-1c-24-17-17-23 17-16l27 6-13 12-13 12-18-14zm-854-1c0-9 41-44 51-44h8l-5 15c-7 18-4 18 32 5l26-10 34 6 34 6-6 9-6 10-33-7-33-6-22 12-23 12-8-13-8-14-13 13c-13 13-28 16-28 6zm398-11c7-3 16-2 19 1 4 3-2 6-13 5l-19-1 13-5zm112-3c0-5 5-10 10-10 6 0 10 5 10 10 0 6-4 10-10 10-5 0-10-4-10-10zm195 0-6-10h10c6 0 11 5 11 10 0 6-2 10-4 10-3 0-8-4-11-10zm-349-15 6-15-29-11c-15-6-36-15-46-20l-18-10 3 17 3 17-10 3-10 4-1-25-2-25h68v10c0 16 27 12 67-10l38-20h105l-20 20c-25 25-25 37-2 43l17 5-33 1-33 1 8-12c4-7 9-21 10-30l3-18h-15c-8 0-30 8-49 18l-36 17v55h-29l5-15zm394 0v-15h30v30h-30v-15zm-560-11v-17l-51 5-50 5 9-9 10-10h77l14-11 15-12-7 18-7 19 20 5 20 5-6 9c-3 5-14 9-25 9h-19v-16zm118 9c6-2 18-2 25 0l12 5h-50l13-5zm590-5c-2-6-23-17-45-23l-41-12-13 7-12 8-19-11c-10-7-18-15-18-19v-7l38 4c20 3 65 13 99 22l62 17-11 13c-13 16-35 17-40 1zm-503-8c3-5 10-10 16-10 5 0 9 5 9 10 0 6-7 10-16 10h-15l6-10zm220 1c-3-6-15-11-26-11s-28-7-37-16l-16-17 22 7 22 7v-41h14c8 0 18 5 22 12l8 12-13 4-12 4 17 19c9 11 15 22 12 25s-9 1-13-5zm55-5c0-8-4-16-9-18-4-1-12-14-16-26l-7-24 19 4 18 3v38l13 4 12 5-6-16-6-16h47l13 20 12 21-23-6-24-6-6 15-6 16h-31v-14zm150 4c0-5 5-10 10-10 6 0 10 5 10 10 0 6-4 10-10 10-5 0-10-4-10-10zm-480-60-15-10h22c12 0 25 5 28 10l6 10h-13c-7 0-20-5-28-10z"/></g><g fill="#5f67bb" transform="matrix(.1 0 0 -.1 0 300)"><path d="M1380 2859c0-5 13-12 30-15l30-6-7-11-6-10 11 7 10 6 5-12 5-13 1 10c1 17-13 30-46 42l-33 11v-9zm75 1 6-10 10 5c14 9 11 15-7 15h-15l6-10zm46-4 16-17 51-13 51-14 3 10 4 11 21-11 20-11 7 6c9 10 7 33-4 33h-9l5-15c8-19 0-19-20 0l-15 15-26-12-26-12-7 11c-4 7-19 13-32 15-14 2-32 7-40 12l-15 9 16-17zm94 4c3-5 10-10 16-10 5 0 9 5 9 10 0 6-7 10-16 10h-15l6-10zm-340-20-6-10h15c9 0 16 5 16 10 0 6-4 10-9 10-6 0-13-4-16-10zm435-2c0-10 30-9 55 2l20 9-37-2c-21-1-38-5-38-9zm-484-16c-4-13-5-26-2-29 3-4 6 2 7 13l1 19 10-27 10-28h13c8 0 17 5 21 12l7 11-16-6-17-6-13 32-14 32-7-23zm114 0v-20l-12-5-13-5 18-1 17-1v31l11-7 12-7-5 13c-2 8-10 16-16 18l-12 4v-20zm495 8c3-5 14-10 23-10h17l-15 10c-8 5-19 10-23 10h-8l6-10zm-438-7-7-6 30-19c42-25 50-23 18 7-30 27-32 28-41 18zm106-8v-15h29l-12 15c-7 8-13 15-15 15-1 0-2-7-2-15zm267 7c0-5-10-14-22-21l-23-12 22 5 22 4-6-14-5-14h23l-3 18c-1 9 1 23 5 30l8 12h-10c-6 0-11-4-11-8zm-620-11c0-5 7-12 16-15l15-6-6-10-6-10h15c19 0 20 5 6 31l-11 19h-14c-8 0-15-4-15-9zm128-8c6-2 18-2 25 0l12 5h-50l13-5zm298-1-5-9h14c8 0 15 4 15 9 0 4-4 8-9 8-6 0-12-4-15-8zm375 1c-1-7 8-22 19-33l20-20h49l15-16c21-21 20-27-2-15l-18 9-34-8-35-8 35-1c19-1 45-4 58-7l22-6v42l13 1c13 1-38 16-85 26l-28 5 6 9 5 9h-15c-8 0-17 6-19 13l-5 12-1-12zm-111-13c0-12 40-34 48-25 3 3-4 8-16 12l-22 5 6 9 5 9h-10c-6 0-11-4-11-10zm-795-10-6-10h62l-6 10c-3 6-15 10-25 10s-22-4-25-10zm450-10-19-21 24 9c13 5 26 14 28 20l4 12h-10c-5 0-17-9-27-20zm149 5c23-18 36-19 36-4v10l-10-6-10-6v21h-17l-18-1 19-14zm256 8c0-10 70-56 77-50 4 4-30 31-64 51l-13 7v-8zm-343-17-6-15 15 6c7 3 14 9 14 14 0 14-17 10-23-5zm-246-10-12-14 11-7 10-6 1 8c1 4 1 11 0 15l-1 7 14-5 14-5 7 10 6 11h-19c-11 0-25-6-31-14zm409 4c0-5 7-10 16-10h15l-6 10c-3 6-10 10-16 10-5 0-9-4-9-10zm76 3c-3-3-3-10 0-14 7-12 34-11 34 0s-26 22-34 14zm-769-10c-12-11-8-23 8-23h15v-14c0-8-6-16-12-19l-13-4 7-8 8-8 15 13 15 12-7 11-6 10 14-7 14-7-16 13c-9 7-15 19-13 26l3 13-6-11c-2-5-9-10-14-10h-10l6 10c7 11 2 13-8 3zm73-4c0-11 27-12 34-1l5 8-20 1-19 2v-10zm90 3c0-9 47-8 57 1l6 7h-63v-8zm-256-17-19-14 16-1c9 0 22 7 29 15l12 15h-9c-5 0-18-7-29-15zm46 4v-10l10 6c6 3 10 8 10 11 0 2-4 4-10 4-5 0-10-5-10-11zm398 4c7-3 16-2 19 1 4 3-2 6-13 5l-19-1 13-5zm257-3-6-10h42l-6 10c-3 6-10 10-15 10s-12-4-15-10zm-489-15-5-15h28l-5 15c-4 8-7 15-9 15s-5-7-9-15zm114 5c0-5 7-10 16-10h15l-6 10c-3 6-10 10-16 10-5 0-9-4-9-10zm440 0c0-5 7-10 15-10s15 5 15 10c0 6-7 10-15 10s-15-4-15-10zm163-7c9-2 25-2 35 0l17 5h-70l18-5zm277-3c0-6 7-10 15-10s15 2 15 4-7 6-15 10l-15 5v-9zm-1247-15c-3-9-3-19 1-22 3-4 6 1 6 11v17l12-7 11-7-7 11c-10 16-15 15-23-3zm622 5-6-10h10c6 0 11 5 11 10 0 6-2 10-4 10-3 0-8-4-11-10zm422-4-6-15 9-6c13-8 20 9 11 24l-8 13-6-16zm-987-8c0-11 12-10 30 2l15 9-23-2c-12 0-22-5-22-9zm393-5c0-7 4-13 8-13s9 6 12 13l5 14h-25v-14zm747 7c0-5 5-10 11-10h10l-6 10c-3 6-8 10-11 10-2 0-4-4-4-10zm-1020-11v-10l19 6 20 6 10-18c11-21 24-13 15 11l-6 16h-58v-11zm750 1c0-5 5-10 10-10 6 0 10 5 10 10 0 6-4 10-10 10-5 0-10-4-10-10zm-955-27 25-28-18-15c-10-8-24-24-32-35l-15-20 34 28 34 28 7-11 8-12 6 11 7 11h-10c-6 0-11 7-11 15v15h14c8 0 18 5 22 12l7 11-16-6c-10-4-23-10-31-13l-14-5-7 20-6 21h-30l26-27zm352 13-6-16-15 6-14 5-5-8-6-9 25-2 25-2 6 16c3 8 3 17 0 20-2 3-7-2-10-10zm298 4c3-5 8-10 11-10 2 0 4 5 4 10 0 6-5 10-11 10h-10l6-10zm496-4-11-14 18-4 18-5 1 18c2 22-10 25-26 5zm204 4c3-5 8-10 11-10 2 0 4 5 4 10 0 6-5 10-11 10h-10l6-10zm-335-10-15-10h45v10c0 13-11 13-30 0zm-910-9c0-6 5-13 10-16l10-6v15c0 9-4 16-10 16-5 0-10-4-10-9zm855-1c3-5 8-10 11-10 2 0 4 5 4 10 0 6-5 10-11 10h-10l6-10zm109-5c1-8 5-18 9-21l7-7v43h-9c-5 0-8-7-7-15zm41 5c3-5 8-10 11-10 2 0 4 5 4 10 0 6-5 10-11 10h-10l6-10zm126-6-13-16 21 4c12 1 22 7 22 13 1 16-15 15-30-1zm-1091-4c0-5 7-10 15-10s15 5 15 10c0 6-7 10-15 10s-15-4-15-10zm1164-1c-2-4 0-10 6-14 11-7 30 2 30 14 0 10-29 10-36 0zm-1094-9-15-10h17c9 0 20 5 23 10l6 10h-8c-4 0-15-5-23-10zm700 0c0-5 5-10 10-10 6 0 10 5 10 10 0 6-4 10-10 10-5 0-10-4-10-10zm462-1c2-7 10-15 17-17l14-4-5 13c-2 7-10 15-17 17l-13 5 4-14zm-1474-21-48-10v-20l18 7c17 7 39 11 75 14 9 0 17 6 17 11 0 6-3 9-7 9-5-1-29-6-55-11zm589-9c7-7 15-10 18-7s-2 9-12 12l-18 7 12-12zm-297-9c0-5 5-10 10-10 6 0 10 5 10 10 0 6-4 10-10 10-5 0-10-4-10-10zm1235-1c-4-6-5-13-2-16 7-7 27 6 27 18s-17 12-25-2zm-1380-9-6-10h10c5 0 13 5 16 10l6 10h-10c-5 0-13-4-16-10zm-170-10-6-10h10c6 0 11 5 11 10 0 6-2 10-4 10-3 0-8-4-11-10zm1065 0c0-5 5-10 11-10h10l-6 10c-3 6-8 10-11 10-2 0-4-4-4-10zm540-5c0-8-4-15-9-15h-10l12-22c20-37 50-68 67-68 9 0 25-7 37-15l22-15 6 10 6 10h-23l12 16 13 15-17 17-17 17 2-10c1-5 1-17 0-26l-1-16-25 4c-13 3-29 11-36 19l-11 13 26 7c26 6 33 18 17 28l-9 6-26-21-26-20v9c0 6-3 17-6 26l-6 16h16c20 0 21 16 1 24l-15 5v-14zm-935-5c3-5 8-10 11-10 2 0 4 5 4 10 0 6-5 10-11 10h-10l6-10zm825-5c7-8 17-15 22-15h10l-12 15c-7 8-17 15-22 15h-10l12-15zm-1590-10-12-15 23 1 24 1-13 5-12 5 6 9c9 15-2 10-16-6zm37-16c-20-22-15-41 5-21 7 7 22 12 35 12h23v22l-26-6-26-7 7 11c11 17 0 11-18-11zm88 11-20-9h17c9-1 20 4 23 9 7 11 7 11-20 0zm1165 0c0-5 5-10 11-10h10l-6 10c-3 6-8 10-11 10-2 0-4-4-4-10zm270 0c0-5 5-10 11-10h10l-6 10c-3 6-8 10-11 10-2 0-4-4-4-10zm-1167-15v-15h29l-12 15c-7 8-13 15-15 15-1 0-2-7-2-15zm1262 5-6-10h32l-6 10c-3 6-8 10-10 10s-7-4-10-10zm-1475-11v-10l10 6c6 3 10 8 10 11 0 2-4 4-10 4-5 0-10-5-10-11zm140 1c0-5 5-10 10-10 6 0 10 5 10 10 0 6-4 10-10 10-5 0-10-4-10-10zm250-5c0-8 2-15 4-15s6 7 10 15l5 15h-9c-6 0-10-7-10-15zm-210-5c0-5 5-10 10-10 6 0 10 5 10 10 0 6-4 10-10 10-5 0-10-4-10-10zm1140 2c0-12 19-26 26-19 2 2-2 10-11 17l-15 12v-10zm-1515-12-6-10h10c6 0 11 5 11 10 0 6-2 10-4 10-3 0-8-4-11-10zm75 0c-8-5-12-12-9-15 8-8 39 5 39 16s-11 11-30-1zm540-21v-10l10 6c6 3 10 8 10 11 0 2-4 4-10 4-5 0-10-5-10-11zm-679-8-14-9 6-9 6-9-25-29c-33-38-30-42 7-11 17 14 36 26 42 26h11l-20 15-19 15 14-2 14-3 4 13 5 12h-9c-4 0-14-4-22-9zm77-10-15-21-6 7-7 6v-20h60v9c0 4-8 8-17 8h-18l15 10c8 5 12 12 8 15-3 4-12-3-20-14zm1422 9c0-5 5-10 10-10 6 0 10 5 10 10 0 6-4 10-10 10-5 0-10-4-10-10zm255 0-6-10h32l-6 10c-3 6-8 10-10 10s-7-4-10-10zm-1490-10-6-10h15c9 0 16 5 16 10 0 6-4 10-9 10-6 0-13-4-16-10zm70-20-6-10h10c6 0 11 5 11 10 0 6-2 10-4 10-3 0-8-4-11-10zm1480-10c3-5 8-10 11-10 2 0 4 5 4 10 0 6-5 10-11 10h-10l6-10zm142-10c3-11 9-20 15-20h9l-11 20c-6 11-12 20-14 20s-2-9 1-20zm-235 3-12-5 6-9c8-14 21-11 28 6l5 15-7-1c-4 0-13-3-20-6zm133-13-6-10h10c6 0 11 5 11 10 0 6-2 10-4 10-3 0-8-4-11-10zm45 6c0-2 7-7 16-10l15-6-6 10c-6 10-25 14-25 6zm-395-17c-11-17 1-21 15-4l12 15h-10c-6 0-14-5-17-11zm-1585-9c0-5 5-10 10-10 6 0 10 5 10 10 0 6-4 10-10 10-5 0-10-4-10-10zm1987-1c7-7 15-10 18-7s-2 9-12 12l-18 7 12-12zm-1921-8-5-8 25 3c35 3 43 14 11 14-14 0-28-4-31-9zm104-11c0-5 5-10 10-10 6 0 10 5 10 10 0 6-4 10-10 10-5 0-10-4-10-10zm1755-10-6-10h15c9 0 16 5 16 10 0 6-4 10-9 10-6 0-13-4-16-10zm-868-11c7-7 15-10 18-7s-2 9-12 12l-18 7 12-12zm913 7c0-2 7-6 15-10l15-5v9c0 6-7 10-15 10s-15-2-15-4zm90-6c0-5 5-10 11-10h10l-6 10c-3 6-8 10-11 10-2 0-4-4-4-10zm43-20v-31l6 9c3 5 11 11 17 13l11 4-17 17-17 18v-30zm-2143 5c0-8 4-15 8-15 5 0 9 7 9 15s-4 15-9 15c-4 0-8-7-8-15zm110 0c0-9 51-58 55-53 5 5-40 58-49 58-3 0-6-2-6-5zm1020 1c0-3 9-10 20-16s20-8 20-6c0 3-9 10-20 16s-20 8-20 6zm-1050-15v-12l-10 6-10 6v-10c0-6 4-11 9-11 13 0 25 20 17 27-3 4-6 1-6-6zm904-7-19-15 23 11c12 6 22 13 22 15 0 8-5 6-26-11zm1086 6c0-5 7-10 16-10h15l-6 10c-3 6-10 10-16 10-5 0-9-4-9-10zm-55-10c3-5 11-10 16-10h10l-6 10c-3 6-11 10-16 10h-10l6-10zm-2047-17c6-2 18-2 25 0l12 5h-50l13-5zm1822-2c0-6 5-13 10-16l10-6v15c0 9-4 16-10 16-5 0-10-4-10-9zm-1560-21v-9l15 5c8 4 15 8 15 10s-7 4-15 4-15-4-15-10zm1900 1v-12l-10 6-10 6v-10c0-6 4-11 9-11 13 0 25 20 17 27-3 4-6 1-6-6zm20-1c0-5 5-10 11-10h10l-6 10c-3 6-8 10-11 10-2 0-4-4-4-10zm30-8c0-10 4-22 9-27 5-6 13-25 18-44l9-35 13-4 13-4-12 22c-7 13-14 37-17 54-6 44-11 56-23 56h-10v-18zm17-14-5-13-1 19c-1 11 2 17 5 13 3-3 4-12 1-19zm-2144 8 7-19-11-13-11-14h8c5 0 14 8 20 18l11 17-15 15-16 14 7-18zm842 4-6-10h10c6 0 11 5 11 10 0 6-2 10-4 10-3 0-8-4-11-10zm-930-11c-4-6-5-13-2-16 7-7 27 6 27 18s-17 12-25-2zm290 1c3-5 8-10 11-10 2 0 4 5 4 10 0 6-5 10-11 10h-10l6-10zm-240-10-6-10h10c6 0 11 5 11 10 0 6-2 10-4 10-3 0-8-4-11-10zm2047-2c-14-14-16-28-3-28 9 0 24 30 18 36-2 2-9-2-15-8zm-742-12c0-3 9-10 20-16s20-8 20-6c0 3-9 10-20 16s-20 8-20 6zm840-6c0-5 5-10 11-10h10l-6 10c-3 6-8 10-11 10-2 0-4-4-4-10zm-1361-17-14-18 15 11c8 6 22 14 30 17l15 5-16 1-17 1-13-17zm-899-22-25-25 27 17 27 17 6-10 6-10h-8c-4 0-1-5 7-10l15-10-15-10-15-10h12c6 0 15 5 18 10l7 11-19 27-18 28-25-25zm67 22c-4-3-7-11-7-17v-10l12 12c6 6 9 14 7 17-3 3-9 2-12-2zm1003 3c0-2 7-7 16-10l15-6-6 10c-6 10-25 14-25 6zm-215-26-6-10 15 6c18 7 21 14 7 14-6 0-13-4-16-10zm1395-4c0-8 5-18 10-21l10-6v41h-10c-5 0-10-6-10-14zm-750 0c0-2 7-7 16-10l15-6-6 10c-6 10-25 14-25 6zm850 0c0-2 7-7 16-10l15-6-6 10c-6 10-25 14-25 6zm-2220-27v-10l10 6c6 3 10 8 10 11 0 2-4 4-10 4-5 0-10-5-10-11zm670 1-15-10h12c6 0 15 5 18 10 8 12 4 12-15 0zm747-1c7-7 15-10 18-7s-2 9-12 12l-18 7 12-12zm658 1c3-5 8-10 11-10 2 0 4 5 4 10 0 6-5 10-11 10h-10l6-10zm170-10c3-5 8-10 11-10 2 0 4 5 4 10 0 6-5 10-11 10h-10l6-10zm-2390-10-6-10h10c6 0 11 5 11 10 0 6-2 10-4 10-3 0-8-4-11-10zm28-38v-43l10 10 10 10-10 33-11 33 1-43zm2222 28c3-5 8-10 11-10 2 0 4 5 4 10 0 6-5 10-11 10h-10l6-10zm125-10c0-11 4-20 8-20s8 9 9 20l2 20h-19v-20zm30 10c0-5 5-10 10-10 6 0 10 5 10 10 0 6-4 10-10 10-5 0-10-4-10-10zm-70-14c0-21 11-46 20-46h7l-5 25c-2 14-8 28-13 31l-9 5v-15zm-1040-20c0-2 7-7 16-10l15-6-6 10c-6 10-25 14-25 6zm-1350-18c0-4 6-8 14-8s21-3 30-6l16-6v20l-30 4-30 5v-9zm130 3c0-6 5-13 10-16l10-6v15c0 9-4 16-10 16-5 0-10-4-10-9zm1622-16v-30l5 18c2 9 2 23 0 30l-5 12v-30zm568 15c0-5 5-10 10-10 6 0 10 5 10 10 0 6-4 10-10 10-5 0-10-4-10-10zm123-18 6-30-14-12c-8-7-13-16-10-20 3-5-1-11-7-13l-13-5 12-1c12-1 27 17 28 34 1 6 6 9 12 8l11-2-3 31-2 32-13 4-13 5 6-31zm58-5-1-18-12 7-13 7 12-13c16-17 26-8 20 17l-5 18-1-18zm-2439-24 6-23h-20l6-30 6-31-9 6-10 5-5-9-6-9 17 2 18 3 3 29c2 16 8 34 13 40l9 11-17 14-16 14 5-22zm198 7c0-5 5-10 10-10 6 0 10 5 10 10 0 6-4 10-10 10-5 0-10-4-10-10zm1550-280c0-161 2-291 5-289 6 7 7 570 1 577-3 3-6-127-6-288zM250 2026c0-8-7-17-16-20-9-4-14-9-11-13 4-3 13 0 21 6l15 13 11-7 10-6v10c0 6-5 11-11 11h-10l6 10 6 10h-10c-6 0-11-6-11-14zm655 4-6-10 15 6c18 7 21 14 7 14-6 0-13-4-16-10zm1720 0c3-5 8-10 11-10 2 0 4 5 4 10 0 6-5 10-11 10h-10l6-10zm-1780-35c-22-13-37-25-33-25 9 0 78 41 78 46 0 6-3 5-45-21zm1275 21c0-3 9-10 20-16s20-8 20-6c0 3-9 10-20 16s-20 8-20 6zm662-26-1-30h19v24c0 14-4 27-8 30l-9 5-1-29zm-1558 4-19-15 20 9c11 5 27 12 35 15l15 5-16 1c-8 1-24-6-35-15zm536 12c0-2 7-7 16-10l15-6-6 10c-6 10-25 14-25 6zm-80-20c0-3 9-10 20-16s20-8 20-6c0 3-9 10-20 16s-20 8-20 6zm1057-3c-10-10-8-33 2-33h10l-2 20c-1 23-1 22-10 13zm-1427-7c0-2 7-7 16-10l15-6-6 10c-6 10-25 14-25 6zm-945-16-6-10h10c6 0 11 5 11 10 0 6-2 10-4 10-3 0-8-4-11-10zm405-11-25-20 22 10c12 6 25 16 28 21 9 15 3 12-25-11zm1054-269c0-162 2-229 3-147 2 81 2 213 0 295-1 81-3 14-3-148zm851 280c3-5 8-10 11-10 2 0 4 5 4 10 0 6-5 10-11 10h-10l6-10zm-2448-7c-4-3-7-13-7-21v-14l15 12c8 7 15 16 15 21 0 11-14 12-23 2zm33-24v-10l10 6c6 3 10 8 10 11 0 2-4 4-10 4-5 0-10-5-10-11zm92-9c12-19 28-27 28-14 0 7-27 34-34 34-4 0-1-9 6-20zm896 13c7-3 16-2 19 1 4 3-2 6-13 5l-19-1 13-5zm512 0c-1-5-2-54-3-111l-2-102h15v110c0 61-2 110-5 110s-5-3-5-7zm-676-19-19-15 25 12c31 14 36 19 24 19-6 0-19-7-30-16zm1557 0 1-19 5 13c3 7 2 16-1 19-3 4-6-2-5-13zm122 1c0-8 4-15 9-15 4 0 8 7 8 15s-4 15-8 15c-5 0-9-7-9-15zm-2568-5-6-10h10c6 0 11 5 11 10 0 6-2 10-4 10-3 0-8-4-11-10zm1230 0c3-5 11-10 16-10h10l-6 10c-3 6-11 10-16 10h-10l6-10zm589-195v-210l3 108c2 59 2 154 0 210-1 56-3 8-3-108zm250-70c0-154 2-216 3-137 2 79 2 205 0 280-1 75-3 11-3-143zm526 250c0-14 2-25 4-25s6 11 8 25l5 25h-17v-25zm-2511 6c-3-9-30-17-63-20l-8-1 5-20 5-20-9-6c-5-3-8-17-8-32l1-27 7 25c3 14 13 35 21 48l15 22h33l6 16c4 9 5 19 2 21-2 2-6 0-7-6zm857-27c-11-8-16-14-10-14 13 0 39 18 34 24-3 2-14-2-24-10zm1583-1c6-12 16-25 21-28l10-6v9c0 5-10 17-21 28l-22 19 12-22zm-1723-8c-11-8-16-15-10-15 5 0 18 7 28 15 11 8 16 15 10 15-5 0-18-7-28-15zm1825-3c-13-24-10-57 7-74 7-7 12-22 12-35v-22l15 5c8 4 15 11 15 17v10l-7-7-7-6-19 41-18 41 15 11 16 12-9 14-9 14-11-21zm-2644-8c-4-4-7-14-7-23v-15l11 11c6 6 10 16 7 23l-3 11-8-7zm2433-3v-12l-10 6-10 6v-10c0-6 4-11 9-11 13 0 25 20 17 27-3 4-6 1-6-6zm50-18 10-5-6-9-5-9h23l-4 12c-2 6-10 13-16 14l-12 3 10-6zm-2387-18c0-8 4-15 9-15 4 0 8 7 8 15s-4 15-8 15c-5 0-9-7-9-15zm2481-7-7-13 8 8 8 7 19-17c19-17 24-43 8-43-5 0-10 4-10 8 0 11-39 12-45 1l-6-9-11 6-11 7 6-10 7-11 36 1 35 1 10-14c16-27 6-36-37-31-6 1-11-5-11-12v-13h19c10 0 18 4 18 8s7 8 15 8h15l-7 48-6 47-18 18c-22 20-26 21-35 5zm91 2-6-10h10c6 0 11 5 11 10 0 6-2 10-4 10-3 0-8-4-11-10zm-2615-4c0-2 6-9 13-15l14-11v30h-14c-7 0-13-2-13-4zm635-16-6-10 15 6c18 7 21 14 7 14-6 0-13-4-16-10zm-405-10c0-5 5-10 11-10h10l-6 10c-3 6-8 10-11 10-2 0-4-4-4-10zm510 0-15-10h12c6 0 15 5 18 10 8 12 4 12-15 0zm380 0-15-10h12c6 0 15 5 18 10 8 12 4 12-15 0zm-1180-10c0-5 5-10 10-10 6 0 10 5 10 10 0 6-4 10-10 10-5 0-10-4-10-10zm52-11c2-6 8-10 13-10s11 4 13 10l4 11h-34l4-11zm1478-3c0-3 9-10 20-16s20-8 20-6c0 3-9 10-20 16s-20 8-20 6zm-1548-26v-25l5 13c2 6 2 18 0 25l-5 12v-25zm43-3c-4-10-5-21-1-24 10-10 18 4 13 24l-4 18-8-18zm565 3-15-10h12c6 0 15 5 18 10 8 12 4 12-15 0zm-510-20c0-5 5-10 10-10 6 0 10 5 10 10 0 6-4 10-10 10-5 0-10-4-10-10zm141-6 1-19 5 13c3 7 2 16-1 19-3 4-6-2-5-13zm839 6-15-10h12c6 0 15 5 18 10 8 12 4 12-15 0zm1616-27 4-21-20 5-20 5v-32h21l-6 10-6 10 30-4 31-3v49l-14-11-14-12-5 13c-2 7-3 3-1-9zm-160 5c3-4 12-8 20-8s14 4 14 8-9 8-19 8h-20l5-8zm-2516-12c0-2 9-6 20-9l20-5v9c0 5-9 9-20 9s-20-2-20-4zm90-36c0-5 5-10 10-10 6 0 10 5 10 10 0 6-4 10-10 10-5 0-10-4-10-10zm491-6 1-19 5 13c3 7 2 16-1 19-3 4-6-2-5-13zm-615-16c-3-13-6-27-6-31v-8l10 6 10 6-5 10-6 9h8c5 0 13-10 18-22 6-12 16-23 23-26l12-4v11c0 6-7 11-15 11h-14l5 14 5 13-16 7-16 6 6 10 6 10h-9c-5 0-12-10-16-22zm84 6v-15l10 6 10 6-5 10c-9 14-15 11-15-7zm2637 9c-4-3-7-12-7-20v-13h40v19l-17-6-16-6 6 16c7 18 5 21-6 10zm-1782-13-6-10 15 6c18 7 21 14 7 14-6 0-13-4-16-10zm1701-7-7-18 12 12c7 7 10 15 7 18s-9-2-12-12zm-56 3c0-2 7-7 16-10l15-6-6 10c-6 10-25 14-25 6zm107-2-6-10 9-14c12-20 19-10 10 14l-7 20-6-10zm-2602-44c3-5 8-10 11-10 2 0 4 5 4 10 0 6-5 10-11 10h-10l6-10zm51-7-7-18 12 12c7 7 10 15 7 18s-9-2-12-12zm61-3c3-11 9-20 13-20h8l-5 20c-3 11-9 20-13 20h-8l5-20zm2463 9v-10l10 6c6 3 10 8 10 11 0 2-4 4-10 4-5 0-10-5-10-11zm-2420-10v-10l10 6c6 3 10 8 10 11 0 2-4 4-10 4-5 0-10-5-10-11zm2467-6 6-16-9 6-10 6-1-20-2-20 19 23 19 23 1-25 1-25 10 18 10 17-13 13c-7 6-19 13-25 14l-12 3 6-17zm-2680-18-6-14 9-6 10-6v20c0 25-6 27-13 6zm36-7c-1-13-7-24-13-26-12-4-13-22-1-22 5 0 14 14 20 31 13 38 13 39 3 39-4 0-9-10-9-22zm851 7-19-14 23 6c12 3 22 9 22 14 0 12-3 11-26-6zm1646 4v-10l10 6c6 3 10 8 10 11 0 2-4 4-10 4-5 0-10-5-10-11zm-2570-15v-15l10 6c6 3 10 10 10 16 0 5-4 9-10 9-5 0-10-7-10-16zm808 9c-2-5-1-129 2-278l6-270 2 278c2 250 0 294-10 270zm1717-2-5-10 8-5 9-5v14c0 17-3 19-12 6zm-2422-21c1-11 5-20 9-20s8 9 8 20v20h-19l2-20zm771-270c0-151 2-213 3-137 2 75 2 199 0 275-1 75-3 13-3-138zm1754 243 6-28 4 19 4 18-10 10-10 10 6-29zm90-23c-7-24-3-38 8-28 3 4 4 17 2 30l-3 23-7-25zm-2588 3c0-5 5-15 10-23l10-15v45h-10c-5 0-10-3-10-7zm2520-18c0-8 5-15 10-15 6 0 10 7 10 15s-4 15-10 15c-5 0-10-7-10-15zm-2628-11c-14-16-5-18 17-5l13 9-8 5c-5 3-15-1-22-9zm52-6-19-23 23 19c21 18 27 26 19 26-2 0-12-10-23-22zm990-188v-195l3 98c2 53 2 141 0 195l-3 97v-195zM130 1400c0-5 5-10 10-10 6 0 10 5 10 10 0 6-4 10-10 10-5 0-10-4-10-10zm2745-31c1-22 6-43 9-46l6-7-1 47-2 47h-15l3-41zm-108 24c-4-3-7-15-7-26 0-25 9-17 15 12 4 22 2 25-8 14zm58-13-6-10h10c6 0 11 5 11 10 0 6-2 10-4 10-3 0-8-4-11-10zm-2660-22c-4-13-12-26-17-29l-10-6 25-5 25-5-5 31c-6 40-10 43-18 14zm85 12c0-5 5-10 10-10 6 0 10 5 10 10 0 6-4 10-10 10-5 0-10-4-10-10zm1660 0-15-10h10c6 0 17 5 25 10l15 10h-10c-5 0-17-5-25-10zm-1610-9c0-5 5-13 10-16l10-6v10c0 5-4 13-10 16l-10 6v-10zm2410-2v-10l10 6c6 3 10 8 10 11 0 2-4 4-10 4-5 0-10-5-10-11zm132-11c-6-14-16-29-21-33-6-3-11-14-10-23v-17l9 20c5 11 9 16 9 10 1-5 8 3 16 19 9 16 14 34 11 40l-4 11-10-27zm-2477 3-5-10 10-6 10-6v15c0 18-6 21-15 7zm2415-1c0-5 5-10 11-10h10l-6 10c-3 6-8 10-11 10-2 0-4-4-4-10zm-545-10-6-10 15 6c18 7 21 14 7 14-6 0-13-4-16-10zm-1998-11c7-7 15-10 18-7s-2 9-12 12l-18 7 12-12zm-40-20-5-20 14-6 15-6-5-13c-6-16 2-44 13-44h7l-4 35-4 35h-19l6 20 6 20h-9c-5 0-12-9-15-21zm1977-5-19-15 23 11c12 6 22 13 22 15 0 8-5 6-26-11zm591 6c3-5 8-10 11-10 2 0 4 5 4 10 0 6-5 10-11 10h-10l6-10zm-980-10-6-10 15 6c18 7 21 14 7 14-6 0-13-4-16-10zm971-13c3-10 9-15 12-12s0 11-7 18l-12 12 7-18zm-146-6c0-5 7-12 16-15l17-6-13 15c-14 17-20 19-20 6zm91-17c-6-15-9-29-7-32 3-2 10 8 16 23 14 36 7 43-9 9zm-2532 6c-3-8-4-23-1-32l4-18h14c8 0 14 5 14 10 0 6-4 10-9 10s-11 10-13 23l-4 22-5-15zm81 0c0-5 5-10 10-10 6 0 10 5 10 10 0 6-4 10-10 10-5 0-10-4-10-10zm1485 0-6-10h10c5 0 13 5 16 10l6 10h-10c-5 0-13-4-16-10zm505 0-15-10h12c6 0 15 5 18 10 8 12 4 12-15 0zm593-10 5-20h-39l6-9 5-10 33 12 32 11-18 4-18 4 5 14 5 14h-21l5-20zm-1546-1c7-7 15-10 18-7s-2 9-12 12l-18 7 12-12zm974-15 1-19 5 13c3 7 2 16-1 19-3 4-6-2-5-13zm527 9c7-3 16-2 19 1 4 3-2 6-13 5l-19-1 13-5zm-1114-19-19-15 25 12c31 14 36 19 24 19-6 0-19-7-30-16zm-1417 0c-4-4-7-19-7-33v-25l16 23 16 23-9 9-9 9-7-6zm54-4c-1-18 16-46 23-40 2 3-2 16-9 30l-14 25v-15zm1817-21c-21-11-38-22-38-24 0-7 53 17 70 32 19 18 12 16-32-8zm-758 7c0-2 8-10 18-17l17-14-14 18c-13 16-21 21-21 13zm635-6-6-10 15 6c18 7 21 14 7 14-6 0-13-4-16-10zm843 3c7-3 16-2 19 1 4 3-2 6-13 5l-19-1 13-5zm-2683-23-6-10 20-26c12-15 21-23 21-18 0 4 7-1 16-12 8-10 13-13 9-6l-6 12 13 1c7 0 0 5-16 11l-28 10 13 9 14 9h-47l6 15c6 17 0 20-9 5zm2605-12v-23l10 15c13 19 13 30 0 30h-10v-22zm55 13-5-10 10-6 10-6v15c0 18-6 21-15 7zm-562-56v-60l4 33c2 18 2 45 0 60l-4 27v-60zm-833 41c0-2 7-7 16-10l15-6-6 10c-6 10-25 14-25 6zm140-6c0-5 5-10 11-10h10l-6 10c-3 6-8 10-11 10-2 0-4-4-4-10zm1010 0c0-5 5-10 10-10 6 0 10 5 10 10 0 6-4 10-10 10-5 0-10-4-10-10zm120-17v-18l8 10c4 6 11 13 16 18l9 7h-33v-17zm-2427-8c0-8 4-15 9-15 4 0 8 7 8 15s-4 15-8 15c-5 0-9-7-9-15zm1204 4c7-7 15-10 18-7s-2 9-12 12l-18 7 12-12zm1308 1-7-12 9-9 10-10 27 7c14 3 26 11 26 16v10l-16-6-17-6-12 10-13 11-7-11zm-1165-14c0-2 7-7 16-10l15-6-6 10c-6 10-25 14-25 6zm364-12-19-15 23 11c12 6 22 13 22 15 0 8-5 6-26-11zm541 6-6-10h10c6 0 11 5 11 10 0 6-2 10-4 10-3 0-8-4-11-10zm-2215-20c0-13 12-19 26-13 21 8 17 19-6 19-11 0-20-3-20-6zm1244-4c11-9 24-16 30-16 12 0 7 5-24 19l-25 12 19-15zm281 4-6-10 15 6c18 7 21 14 7 14-6 0-13-4-16-10zm897-10c-18-29-15-38 4-12 9 13 14 25 12 27s-9-5-16-15zm-1062 6c0-2 7-7 16-10l15-6-6 10c-6 10-25 14-25 6zm1106-32c-8-20-8-24 2-24 4 0 8 9 9 20 2 24-3 26-11 4zm-2553-39v-50l4 28 4 27h13c6 0 18-6 25-12l13-13-13 22-13 21-12-5-12-4-5 18-5 18 1-50zm67 41c0-2 7-7 16-10l15-6-6 10c-6 10-25 14-25 6zm2266-4-6-11 11-6c15-10 25 3 12 16l-11 11-6-10zm-326-22-25-21 28 12c15 7 27 16 27 21 0 11-1 10-30-12zm505-4c-6-6-15-18-20-26l-8-15 24 20c13 11 25 21 27 21 2 1 0 4-5 7-4 3-13 0-18-7zm-2360-6c3-5 8-10 11-10 2 0 4 5 4 10 0 6-5 10-11 10h-10l6-10zm2311-6c-10-25 1-29 14-5l11 21h-10c-5 0-12-7-15-16zm-2283-9c0-8 4-15 9-15 4 0 8 7 8 15s-4 15-8 15c-5 0-9-7-9-15zm897 11c0-3 9-10 20-16s20-8 20-6c0 3-9 10-20 16s-20 8-20 6zm1345-16c-10-11-15-20-11-20 11 0 39 30 34 36-3 2-13-5-23-16zm160 9c-4-6-5-12-2-15 2-3 7 2 10 11 7 17 1 20-8 4zm-39-18 6-24-12 8-13 8 7-11 6-11-20-6c-11-3-20-11-20-16v-10l20 11 20 11 1-8c0-4 4 3 10 15l9 24-10 16-11 17 7-24zM337 995c24-32 38-32 17 0-9 14-20 25-26 25h-9l18-25zm569-20c10-8 26-14 34-15h15l-29 15c-36 19-45 19-20 0zm474 11c0-2 7-7 16-10l15-6-6 10c-6 10-25 14-25 6zM306 965c4-8 10-15 15-15h8l-5 15c-4 8-10 15-15 15h-8l5-15zm979 5c3-5 11-10 16-10h10l-6 10c-3 6-11 10-16 10h-10l6-10zm1377-1c2-6 8-10 13-10s11 4 13 10l4 11h-34l4-11zM257 940l-5-20h9c5 0 9 9 9 20s-2 20-4 20-6-9-9-20zm744 5c-1-22 16-45 33-45h9l-15 18c-9 9-18 24-21 32l-5 15-1-20zm326 4c7-7 15-10 18-7s-2 9-12 12l-18 7 12-12zm1113-9c0-5 5-10 10-10 6 0 10 5 10 10 0 6-4 10-10 10-5 0-10-4-10-10zm90-1v-10l10 6c6 3 10 8 10 11 0 2-4 4-10 4-5 0-10-5-10-11zM356 918l-16-22v-66h23l-6 33-5 33 19 12c10 7 19 17 19 22 0 17-18 11-34-12zm2329 12c3-5 8-10 11-10 2 0 4 5 4 10 0 6-5 10-11 10h-10l6-10zm61-5-18-14 7-10c10-17 21-13 33 14 13 28 6 31-22 10zm-2456-7c0-18 18-34 28-24 3 4-2 14-11 23l-17 17v-16zm2300-9v-10l10 6 10 6 6-15c3-9 12-16 20-16 7 0 17-8 22-17l10-17 33 12 34 11-34-5-34-6 8 12 8 13-11-7-12-7v32l-9-6-9-5-15 15c-18 17-37 20-37 4zM440 890c0-5 5-10 10-10 6 0 10 5 10 10 0 6-4 10-10 10-5 0-10-4-10-10zm1499-11-24-20 28 17c15 9 27 18 27 20 0 8-8 4-31-17zm761 10v-10l10 6c6 3 10 8 10 11 0 2-4 4-10 4-5 0-10-5-10-11zm-1228-25c10-10 20-15 24-12 3 4-5 12-18 18l-23 12 17-18zm-1175-1c-10-10-8-33 3-33h9l-6 17-6 16 11-7 12-7v10c0 12-13 14-23 4zm2209-2-7-11h22l-6-10-6-10h10c13 0 14 10 2 29l-8 13-7-11zm-1386-5c0-2 8-10 18-17l17-14-14 18c-13 16-21 21-21 13zm390-14c0-6 9-12 20-15s20-3 20-1-9 8-20 14l-20 11v-9zm1105-2-6-10h10c6 0 11 5 11 10 0 6-2 10-4 10-3 0-8-4-11-10zM560 830v-11l9 5 9 6 5-10 6-10-3 12c-1 6-8 14-14 16l-12 4v-12zm-243-14-6-15 9-6c6-4 14-4 19 0l10 5 6-10c8-14 25-13 25 2v11l-7-6-7-7-21 20-22 21-6-15zm133-1c0-8 5-15 10-15 6 0 10 7 10 15s-4 15-10 15c-5 0-10-7-10-15zm2230-1v-15l10 6c6 3 10 10 10 16 0 5-4 9-10 9-5 0-10-7-10-16zm-353-1c-4-3-7-11-7-17v-10l12 12c6 6 9 14 7 17-3 3-9 2-12-2zm236-18v-25h19l-5 20-5 19 12 5 11 4-16 1-16 1v-25zm47 1v-11l25-1c32-2 32 12 0 18l-25 5v-11zM410 786c0-8 5-18 10-21l10-6v41h-10c-5 0-10-6-10-14zm2032 2c-7-7-12-16-12-20v-8l20 12c20 13 27 28 12 28-4 0-13-5-20-12zm-698-10 16-9 16 9 16 9h-64l16-9zm926 2c0-5 5-10 11-10h10l-6 10c-3 6-8 10-11 10-2 0-4-4-4-10zM340 764c0-6 9-19 19-28l19-17 7 11 6 10-10-2c-5-2-17 6-25 17l-15 20-1-11zm165-4-7-12 10-10 10-10 7 12 7 12-10 10-10 10-7-12zm2142 3c-4-3-7-11-7-17v-10l12 12c6 6 9 14 7 17-3 3-9 2-12-2zM460 740c0-5 7-10 16-10h15l-6 10c-3 6-10 10-16 10-5 0-9-4-9-10zm1220 0c0-5 5-10 11-10h10l-6 10c-3 6-8 10-11 10-2 0-4-4-4-10zM410 726l10-10 10 10 10 10h-40l10-10zm2116 5-5-8 19 2c27 2 33 10 10 12-11 1-22-2-24-6zm74-7v-15l10 6c6 3 10 10 10 16 0 5-4 9-10 9-5 0-10-7-10-16zm-2070-3c0-17 12-41 20-41h8l-5 20c-3 11-9 23-14 26l-9 5v-10zm2106-7c-9-8-16-20-16-25v-10l10 6c11 7 33 45 26 45-2 0-12-7-20-16zm-166-5v-10l10 6c6 3 10 8 10 11 0 2-4 4-10 4-5 0-10-5-10-11zm-1875-9c3-5 8-10 11-10 2 0 4 5 4 10 0 6-5 10-11 10h-10l6-10zm1030 0-6-10 15 6c18 7 21 14 7 14-6 0-13-4-16-10zm895-4c0-8 5-18 11-22l11-6-4-23-5-23 11 4 11 4v75l-17 3-18 3v-15zm-2112-9c-3-6-3-17-1-24l4-12 15 6 14 5v-30l17-6 17-7-12-8-12-7 18-18 19-17-2 23c-1 13-3 29-4 36l-1 12-11-2c-6-2-14 3-17 11l-5 14 11-7 10-6-6 22-6 23-4-16-3-17-20 5-21 6 12 7 12 8-10 6-10 6-4-13zm2012 9c0-2 7-7 16-10l15-6-6 10c-6 10-25 14-25 6zm159-15-16-18 15-19 15-19-6 18-6 17h8c5 0 11 9 14 20 6 24-2 24-24 1zm-2104-1c3-5 11-10 16-10h10l-6 10c-3 6-11 10-16 10h-10l6-10zm1100-10-6-10 15 6c18 7 21 14 7 14-6 0-13-4-16-10zm-909-9-6-10 9-5 10-6 5 9 6 10-9 5-10 6-5-9zm-156-17v-14h15c8 0 15 5 15 11v10l10-6 10-6v19h-50v-14zm1000-4-25-8 22-1c12-1 25 4 28 9 3 6 5 10 3 9s-14-5-28-9zm863-5-5-16 6-7 7-6 9 14c13 20 12 30 0 30-6 0-13-7-17-15zm107-5v-9l17 6 16 6-8-13-8-13 12 7 11 7-5 10c-8 12-35 12-35-1zm-30-11v-10l10 6c6 3 10 8 10 11 0 2-4 4-10 4-5 0-10-5-10-11zM594 579l26-21 12 4 12 4-33 17c-45 22-49 21-17-4zm1706 1c0-6 7-13 15-16l15-6v-38h10c16 0 12 18-9 39-11 11-17 22-13 25 3 3 0 6-6 6-7 0-12-5-12-10zm-1790-9c0-5 7-14 15-21l15-12v42h-15c-8 0-15-4-15-9zm1888-2c-10-5-18-14-18-19v-8l30 11c30 11 41 27 18 27-7 0-21-5-30-11zm117-9-18-20-8 6-9 5 5 10 6 9h-20l2-20 1-20h16l15 1 18 24c22 30 17 33-8 5zm-1710 0c3-5 11-10 16-10h10l-6 10c-3 6-11 10-16 10h-10l6-10zm-230-10c3-5 8-10 11-10 2 0 4 5 4 10 0 6-5 10-11 10h-10l6-10zm75 0c0-5 5-10 11-10h10l-6 10c-3 6-8 10-11 10-2 0-4-4-4-10zm80 0c0-5 5-10 11-10h10l-6 10c-3 6-8 10-11 10-2 0-4-4-4-10zm-180-25c0-8 5-15 10-15 6 0 10 7 10 15s-4 15-10 15c-5 0-10-7-10-15zm65-8-11-12 4-20c5-23 20-35 42-34h15l-23 12-24 11 6 28c6 31 5 32-9 15zm1806-1-12-14 11-7 11-7-5-17-6-16 15 19c28 36 14 76-14 42zM640 498c0-9 5-20 10-23l10-6v8c0 4-5 15-10 23l-10 15v-17zm110 2c0-5 5-10 11-10h10l-6 10c-3 6-8 10-11 10-2 0-4-4-4-10zm1625 0-6-10h10c6 0 11 5 11 10 0 6-2 10-4 10-3 0-8-4-11-10zm-305-11v-10l10 6c6 3 10 8 10 11 0 2-4 4-10 4-5 0-10-5-10-11zm-1495-9c3-5 11-10 16-10h10l-6 10c-3 6-11 10-16 10h-10l6-10zm1738-5c-3-9-3-19 1-22 3-4 6-1 6 5v12h14c8 0 18 5 21 10l6 10h-42l-6-15zm-151-16c2-6 8-10 13-10s11 4 13 10l4 11h-34l4-11zm71 4c-7-2-13-9-13-14v-9h41l-7-12-8-13 16 12 15 13 8-8c4-4 2 3-4 16-11 22-23 25-48 15zm37-13c0-5-2-10-4-10-3 0-8 5-11 10l-6 10h10c6 0 11-4 11-10zm100 0v-9l15 5c8 4 15 8 15 10s-7 4-15 4-15-4-15-10zM673 437l6-17h-31l12-15 12-15h69l-6-10-6-10h10c21 0 11 21-15 30l-26 10-10-6-10-7 6 21 7 20-12 8-12 7 6-16zm1422-7-6-10h10c6 0 11 5 11 10 0 6-2 10-4 10-3 0-8-4-11-10zM770 418v-11l6 6 7 6 21-10 21-10-19 15c-24 19-36 20-36 4zm1538 4c-10-2-18-7-18-12v-9l15 5 15 6 14-11 13-11 6 7c4 3 7 11 7 16v10l-7-6-6-7-11 8c-6 5-19 7-28 4zM851 410c0-8 4-22 9-30l10-15-1 10c0 6-4 19-9 30l-9 20v-15zm1169 0c0-5 5-10 10-10 6 0 10 5 10 10 0 6-4 10-10 10-5 0-10-4-10-10zm44-4-6-17 6-6 6-7 12 12 12 12-12 12-11 11-7-17zm116 4v-10h40v20h-40v-10zM905 399c-10-15 3-25 16-12l11 11-10 6-11 6-6-11zm125-17c0-5 7-9 15-9h14l-5 9c-3 4-9 8-15 8-5 0-9-4-9-8zm810-2c0-5 5-10 10-10 6 0 10 5 10 10 0 6-4 10-10 10-5 0-10-4-10-10zm383-5c0-8 4-15 9-15 4 0 8 7 8 15s-4 15-8 15c-5 0-9-7-9-15zm53 7-5-9h14c8 0 15 4 15 9 0 4-4 8-9 8-6 0-12-4-15-8zm-326-12c0-5 5-10 10-10 6 0 10 5 10 10 0 6-4 10-10 10-5 0-10-4-10-10zm164-12 16-25-7-6-6-7h23v-30h-24l12-12 12-12 19 18 20 18 10-7 11-6v9c0 5-13 12-30 16-35 6-39 21-9 29l21 6-7 10-6 11-15-15c-20-20-26-19-22 2l3 17-18 4-19 4 16-24zm37-71-12-12 7 18c3 10 9 15 12 12s0-11-7-18zM804 343c2-9 8-19 14-21 14-4 15 0 6 22-8 21-23 20-20-1zm-49-3c3-5 13-10 21-10h15l-6 10c-3 6-13 10-21 10h-15l6-10zm95 2c0-5 7-9 15-9s15 4 15 9c0 4-7 8-15 8s-15-4-15-8zm670-2c0-5 5-10 10-10 6 0 10 5 10 10 0 6-4 10-10 10-5 0-10-4-10-10zm280 0c0-5 5-10 10-10 6 0 10 5 10 10 0 6-4 10-10 10-5 0-10-4-10-10zm225 0c-8-13 3-30 18-29l12 1-12 4-12 5 6 15c6 16-3 19-12 4zm165 0v-11l35 4c19 2 38 7 42 10l6 7h-83v-10zM965 330c3-5 11-10 16-10h10l-6 10c-3 6-11 10-16 10h-10l6-10zm155-10c0-5 5-10 11-10h10l-6 10c-3 6-8 10-11 10-2 0-4-4-4-10zm955 0-6-10h10c6 0 11 5 11 10 0 6-2 10-4 10-3 0-8-4-11-10zm-1025-10c0-5 5-10 10-10 6 0 10 5 10 10 0 6-4 10-10 10-5 0-10-4-10-10zm131 1-13-8 12-8 12-7 10 10 10 10-9 5c-5 3-15 2-22-2zm684-2c-4-6-4-13-1-16 3-4 6 0 6 8v14l10-15 10-15v18c0 19-15 23-25 6zm85-10v-10l10 6c6 3 10 8 10 11 0 2-4 4-10 4-5 0-10-5-10-11zm-1045-9c3-5 13-10 21-10s14 5 14 10v10h-41l6-10zm1145 0-15-10h12c6 0 15 5 18 10 8 12 4 12-15 0zM860 280c0-5 5-10 10-10 6 0 10 5 10 10 0 6-4 10-10 10-5 0-10-4-10-10zm470 0v-10h45l-15 10c-19 13-30 13-30 0zm678 3c7-3 16-2 19 1 4 3-2 6-13 5l-19-1 13-5zm65-10-13-5 1-21v-22l8 19c4 11 16 23 27 27l19 8h-15c-8-1-21-3-27-6zm-1092-7c2-2 16-6 32-10l27-6v20h-32c-17 0-29-2-27-4zm74-6c3-5 10-10 16-10 5 0 9 5 9 10 0 6-7 10-16 10h-15l6-10zm58 3c9-2 23-2 30 0l12 5h-60l18-5zm557-3c0-5 5-10 11-10h10l-6 10c-3 6-8 10-11 10-2 0-4-4-4-10zm80 0c20-13 47-13 55 0l6 10h-76l15-10zm-804-14c3-8 12-17 20-20l14-5-13 19c-6 11-15 20-19 20h-7l5-14zm504 4c0-5 5-10 10-10 6 0 10 5 10 10 0 6-4 10-10 10-5 0-10-4-10-10zm479 2 14-4-14-10-14-10 28 6 28 7 12-8c6-4 21-8 33-9l22-2 5 11 4 12h-36c-20 0-49 3-66 6-16 3-24 4-16 1zm-699-16v-16h42l-4 13c-3 6-12 13-21 15l-17 3v-15zm624 0c-10-8-16-17-13-20s14 3 24 14c21 23 17 26-11 6zm-854-6c0-5 7-10 16-10h15l-6-10c-3-5-4-10-1-10 2 0 12-3 20-6l16-6-6 16c-7 19-4 19 30 6l26-10v9c0 4-12 13-27 20l-26 12-8-13-8-13-13 13c-15 15-28 16-28 2zm130-10c-20-13-10-19 22-13l28 5-6 9c-7 12-25 11-44-1zm268 3c7-3 16-2 19 1 4 3-2 6-13 5l-19-1 13-5zm307-3-6-10h10c6 0 11 5 11 10 0 6-2 10-4 10-3 0-8-4-11-10zm-349-14 6-15-44-22-43-23 17-4 17-3 36 32c38 35 44 49 20 49h-14l5-14zm394-1v-15h30v30h-30v-15zm-560-3c0-4 11-9 26-10l25-2-6 10c-7 12-45 14-45 2zm118 1c6-2 18-2 25 0l12 5h-50l13-5zm600 0c7-3 16-2 19 1 4 3-2 6-13 5l-19-1 13-5zm-513-13c3-5 10-10 16-10 5 0 9 5 9 10 0 6-7 10-16 10h-15l6-10zm220 1c-3-6-15-11-26-11s-27-7-35-15l-15-15h10c5 0 13 5 16 10 3 6 17 10 30 10 23 0 42 16 32 26-3 3-8 1-12-5zm55-5c0-8-6-17-12-19l-13-5 18-1 17-1v14c0 8 6 17 13 19l12 5-17 1-18 1v-14zm150 4c0-5 5-10 10-10 6 0 10 5 10 10 0 6-4 10-10 10-5 0-10-4-10-10zm-723-10 11-12h77l14-11 14-12-5 15-5 15-34 1c-19 1-45 5-59 9l-25 7 12-12zm157-15-2-25h9c5 0 9 7 9 15s0 18 1 22c0 4-3 9-8 10l-8 3-1-25zm215 12c6-8 9-16 6-19-3-2 1-5 9-5h14l-5 13-4 12 18 5 18 5-34 1-33 1 11-13zm-102-11-6-16h54l-13-9-14-8 24-6c12-4 45-7 72-7h49l-7 7c-4 4-22 6-42 5l-35-3-32 18c-18 10-35 22-38 26l-6 9-6-16zm346-9c10-10 20-17 21-15s7 10 13 19l12 15h-65l19-19zm55 9c-20-15-23-26-8-26 5 0 14 9 20 20 12 23 11 24-12 6zm76 3-6-11-18 5-19 5-4-12-5-12 28 4 29 4 5 14c6 17 0 19-10 3zm-154-19c0-5 5-10 11-10h10l-6 10c-3 6-8 10-11 10-2 0-4-4-4-10zm-110-16v-15l17 3c9 2 18 9 21 16l4 12h-42v-16zm-240-4-15-10h22c12 0 25 5 28 10l6 10h-13c-7 0-20-5-28-10zm300-2c0-10 27-10 34 0l5 8h-20c-10 0-19-4-19-8z"/></g></g></svg>